<svg xmlns="http://www.w3.org/2000/svg" viewBox="0 0 512 512">
  <rect width="512" height="512" rx="100" fill="#16a34a"/>
  <path d="M256 120c-80 0-136 64-136 136s64 136 136 136 136-64 136-136-64-136-136-136zm0 240c-57 0-104-47-104-104s47-104 104-104 104 47 104 104-47 104-104 104z" fill="white" opacity="0.2"/>
  <path d="M370 180c-20-20-50-30-80-30-60 0-110 50-110 110s50 110 110 110c30 0 60-10 80-30s30-50 30-80c0-30-10-60-30-80zM290 320c-33 0-60-27-60-60s27-60 60-60 60 27 60 60-27 60-60 60z" fill="white"/>
  <path d="M256 160c-20 0-40 10-50 30s-10 40 0 60 30 30 50 30 40-10 50-30 10-40 0-60-30-30-50-30z" fill="white" opacity="0.5"/>
</svg>
